<svg viewBox="0 0 680 300" role="img" aria-label="사후 코드 리뷰는 설계 결함을 마지막에 발견해 전면 재작업으로 되돌아가지만, 사전 명세 승인은 명세 단계에서 합의를 끝내고 코드는 에이전트가 컴파일한다">
  <defs>
    <marker id="aArrow" viewBox="0 0 10 10" refX="9" refY="5" markerWidth="7" markerHeight="7" orient="auto-start-reverse">
      <path d="M 0 0 L 10 5 L 0 10 z" fill="currentColor" />
    </marker>
  </defs>
  <text x="20" y="30" font-size="11.5" fill="currentColor" opacity="0.55" letter-spacing="1.5">레거시 — 사후 코드 리뷰</text>
  <g fill="none" stroke="currentColor" stroke-width="1" opacity="0.4">
    <rect x="20" y="44" width="118" height="40" />
    <rect x="166" y="44" width="118" height="40" />
    <rect x="312" y="44" width="118" height="40" />
    <rect x="458" y="44" width="140" height="40" />
  </g>
  <g text-anchor="middle" font-size="11.5" fill="currentColor">
    <text x="79" y="69">곧바로 코딩</text>
    <text x="225" y="69">대형 PR</text>
    <text x="371" y="69">코드 리뷰</text>
    <text x="528" y="69">설계 결함 발견</text>
  </g>
  <g stroke="currentColor" stroke-width="1.2" opacity="0.5">
    <line x1="138" y1="64" x2="160" y2="64" marker-end="url(#aArrow)" />
    <line x1="284" y1="64" x2="306" y2="64" marker-end="url(#aArrow)" />
    <line x1="430" y1="64" x2="452" y2="64" marker-end="url(#aArrow)" />
  </g>
  <path d="M 528 84 L 528 112 L 79 112 L 79 90" fill="none" stroke="currentColor" stroke-width="1.2" opacity="0.45" stroke-dasharray="5 4" marker-end="url(#aArrow)" />
  <text x="304" y="130" text-anchor="middle" font-size="11" class="d-pct">전면 재작업 — 생성된 코드 전량 폐기</text>
  <line x1="20" y1="162" x2="660" y2="162" stroke="currentColor" stroke-width="1" opacity="0.25" />
  <text x="20" y="200" font-size="11.5" class="d-accent-t" letter-spacing="1.5">앤스로픽 표준 — 사전 명세 승인</text>
  <g fill="none" stroke-width="2" class="d-accent-stroke">
    <rect x="20" y="214" width="140" height="40" />
    <rect x="188" y="214" width="140" height="40" />
  </g>
  <g fill="none" stroke="currentColor" stroke-width="1" opacity="0.4">
    <rect x="356" y="214" width="140" height="40" />
    <rect x="524" y="214" width="136" height="40" />
  </g>
  <g text-anchor="middle" font-size="11.5" fill="currentColor">
    <text x="90" y="239" class="d-accent-t">명세 작성</text>
    <text x="258" y="239" class="d-accent-t">리뷰 · 승인</text>
    <text x="426" y="239">에이전트 컴파일</text>
    <text x="592" y="239">자동 테스트</text>
  </g>
  <text x="174" y="278" text-anchor="middle" font-size="11" class="d-accent-t">합의가 끝나는 지점</text>
  <text x="509" y="278" text-anchor="middle" font-size="11" class="d-pct">사람이 다시 볼 일 없음</text>
  <g stroke="currentColor" stroke-width="1.2" opacity="0.5">
    <line x1="160" y1="234" x2="182" y2="234" marker-end="url(#aArrow)" />
    <line x1="328" y1="234" x2="350" y2="234" marker-end="url(#aArrow)" />
    <line x1="496" y1="234" x2="518" y2="234" marker-end="url(#aArrow)" />
  </g>
</svg>
